<svg width="189" height="51" viewBox="0 0 189 51" fill="none" xmlns="http://www.w3.org/2000/svg">
<path d="M121.608 0.959996V51H113.4V0.959996H121.608ZM164.712 0.959996V7.656H151.392V51H143.184V7.656H129.792V0.959996H164.712Z" fill="#706F6F"/>
<path d="M72 18H89" stroke="#706F6F" stroke-width="4" stroke-linecap="round"/>
<path d="M72 26H82" stroke="#1976D2" stroke-width="4" stroke-linecap="round"/>
<path d="M72 34H86" stroke="#706F6F" stroke-width="4" stroke-linecap="round"/>
<rect x="61" y="6" width="39.1667" height="40" rx="13" stroke="#1976D2" stroke-width="10"/>
<path d="M5 6H30C37.1797 6 43 11.8203 43 19V33C43 40.1797 37.1797 46 30 46H5V6Z" stroke="#1976D2" stroke-width="10"/>
<circle cx="167.5" cy="46.5" r="4.5" fill="#706F6F"/>
<path d="M170 35.7952V37.6265L170.894 39H172.012L173.576 38.3133L174.471 36.4819L188.776 6.26506L189 5.12048L188.776 3.74699L188.329 2.83133L187.659 2.14458L186.541 1.45783L185.871 1.22892L184.976 1H184.306H183.188L181.847 1.68675L181.176 2.60241L180.506 3.74699L170 35.7952Z" fill="#1976D2"/>
</svg>
