<svg width="239" height="126" viewBox="0 0 239 126" fill="none" xmlns="http://www.w3.org/2000/svg">
<path d="M44.016 33.62V41.432H28.476V92H18.9V41.432H3.276V33.62H44.016ZM80.3421 92.588C74.9101 92.588 69.8981 91.328 65.3061 88.808C60.7701 86.232 57.1581 82.676 54.4701 78.14C51.8381 73.548 50.5221 68.396 50.5221 62.684C50.5221 56.972 51.8381 51.848 54.4701 47.312C57.1581 42.776 60.7701 39.248 65.3061 36.728C69.8981 34.152 74.9101 32.864 80.3421 32.864C85.8301 32.864 90.8421 34.152 95.3781 36.728C99.9701 39.248 103.582 42.776 106.214 47.312C108.846 51.848 110.162 56.972 110.162 62.684C110.162 68.396 108.846 73.548 106.214 78.14C103.582 82.676 99.9701 86.232 95.3781 88.808C90.8421 91.328 85.8301 92.588 80.3421 92.588ZM80.3421 84.272C84.2061 84.272 87.6501 83.404 90.6741 81.668C93.6981 79.876 96.0501 77.356 97.7301 74.108C99.4661 70.804 100.334 66.996 100.334 62.684C100.334 58.372 99.4661 54.592 97.7301 51.344C96.0501 48.096 93.6981 45.604 90.6741 43.868C87.6501 42.132 84.2061 41.264 80.3421 41.264C76.4781 41.264 73.0341 42.132 70.0101 43.868C66.9861 45.604 64.6061 48.096 62.8701 51.344C61.1901 54.592 60.3501 58.372 60.3501 62.684C60.3501 66.996 61.1901 70.804 62.8701 74.108C64.6061 77.356 66.9861 79.876 70.0101 81.668C73.0341 83.404 76.4781 84.272 80.3421 84.272ZM139.577 33.368C145.737 33.368 151.141 34.572 155.789 36.98C160.493 39.388 164.105 42.832 166.625 47.312C169.201 51.736 170.489 56.888 170.489 62.768C170.489 68.648 169.201 73.8 166.625 78.224C164.105 82.592 160.493 85.98 155.789 88.388C151.141 90.796 145.737 92 139.577 92H119.081V33.368H139.577ZM139.157 82.004C145.317 82.004 150.077 80.324 153.437 76.964C156.797 73.604 158.477 68.872 158.477 62.768C158.477 56.664 156.797 51.904 153.437 48.488C150.077 45.016 145.317 43.28 139.157 43.28H130.841V82.004H139.157Z" fill="#706F6F"/>
<circle cx="207.496" cy="62.3736" r="25.4962" stroke="#706F6F" stroke-width="11"/>
<path d="M196 52H218" stroke="#1976D2" stroke-width="6" stroke-linecap="round"/>
<path d="M196 62H208.5" stroke="#1976D2" stroke-width="6" stroke-linecap="round"/>
<path d="M196 72H214" stroke="#1976D2" stroke-width="6" stroke-linecap="round"/>
</svg>
