<svg width="238" height="126" viewBox="0 0 238 126" fill="none" xmlns="http://www.w3.org/2000/svg">
<path d="M44.016 33.62V41.432H28.476V92H18.9V41.432H3.276V33.62H44.016ZM80.3421 92.588C74.9101 92.588 69.8981 91.328 65.3061 88.808C60.7701 86.232 57.1581 82.676 54.4701 78.14C51.8381 73.548 50.5221 68.396 50.5221 62.684C50.5221 56.972 51.8381 51.848 54.4701 47.312C57.1581 42.776 60.7701 39.248 65.3061 36.728C69.8981 34.152 74.9101 32.864 80.3421 32.864C85.8301 32.864 90.8421 34.152 95.3781 36.728C99.9701 39.248 103.582 42.776 106.214 47.312C108.846 51.848 110.162 56.972 110.162 62.684C110.162 68.396 108.846 73.548 106.214 78.14C103.582 82.676 99.9701 86.232 95.3781 88.808C90.8421 91.328 85.8301 92.588 80.3421 92.588ZM80.3421 84.272C84.2061 84.272 87.6501 83.404 90.6741 81.668C93.6981 79.876 96.0501 77.356 97.7301 74.108C99.4661 70.804 100.334 66.996 100.334 62.684C100.334 58.372 99.4661 54.592 97.7301 51.344C96.0501 48.096 93.6981 45.604 90.6741 43.868C87.6501 42.132 84.2061 41.264 80.3421 41.264C76.4781 41.264 73.0341 42.132 70.0101 43.868C66.9861 45.604 64.6061 48.096 62.8701 51.344C61.1901 54.592 60.3501 58.372 60.3501 62.684C60.3501 66.996 61.1901 70.804 62.8701 74.108C64.6061 77.356 66.9861 79.876 70.0101 81.668C73.0341 83.404 76.4781 84.272 80.3421 84.272ZM138.653 33.62C144.869 33.62 150.301 34.824 154.949 37.232C159.653 39.584 163.265 43 165.785 47.48C168.361 51.904 169.649 57.084 169.649 63.02C169.649 68.956 168.361 74.108 165.785 78.476C163.265 82.844 159.653 86.204 154.949 88.556C150.301 90.852 144.869 92 138.653 92H119.585V33.62H138.653ZM138.653 84.188C145.485 84.188 150.721 82.34 154.361 78.644C158.001 74.948 159.821 69.74 159.821 63.02C159.821 56.244 158.001 50.952 154.361 47.144C150.721 43.336 145.485 41.432 138.653 41.432H129.161V84.188H138.653Z" fill="#706F6F"/>
<circle cx="207.496" cy="62.4962" r="25.4962" stroke="#706F6F" stroke-width="9"/>
<path d="M196 53H218" stroke="#1976D2" stroke-width="6" stroke-linecap="round"/>
<path d="M196 63H208.5" stroke="#1976D2" stroke-width="6" stroke-linecap="round"/>
<path d="M196 73H214" stroke="#1976D2" stroke-width="6" stroke-linecap="round"/>
</svg>
