<svg width="239" height="61" viewBox="0 0 239 61" fill="none" xmlns="http://www.w3.org/2000/svg">
<path d="M44.016 1.62V9.432H28.476V60H18.9V9.432H3.276V1.62H44.016ZM80.3421 60.588C74.9101 60.588 69.8981 59.328 65.3061 56.808C60.7701 54.232 57.1581 50.676 54.4701 46.14C51.8381 41.548 50.5221 36.396 50.5221 30.684C50.5221 24.972 51.8381 19.848 54.4701 15.312C57.1581 10.776 60.7701 7.248 65.3061 4.728C69.8981 2.152 74.9101 0.863995 80.3421 0.863995C85.8301 0.863995 90.8421 2.152 95.3781 4.728C99.9701 7.248 103.582 10.776 106.214 15.312C108.846 19.848 110.162 24.972 110.162 30.684C110.162 36.396 108.846 41.548 106.214 46.14C103.582 50.676 99.9701 54.232 95.3781 56.808C90.8421 59.328 85.8301 60.588 80.3421 60.588ZM80.3421 52.272C84.2061 52.272 87.6501 51.404 90.6741 49.668C93.6981 47.876 96.0501 45.356 97.7301 42.108C99.4661 38.804 100.334 34.996 100.334 30.684C100.334 26.372 99.4661 22.592 97.7301 19.344C96.0501 16.096 93.6981 13.604 90.6741 11.868C87.6501 10.132 84.2061 9.264 80.3421 9.264C76.4781 9.264 73.0341 10.132 70.0101 11.868C66.9861 13.604 64.6061 16.096 62.8701 19.344C61.1901 22.592 60.3501 26.372 60.3501 30.684C60.3501 34.996 61.1901 38.804 62.8701 42.108C64.6061 45.356 66.9861 47.876 70.0101 49.668C73.0341 51.404 76.4781 52.272 80.3421 52.272Z" fill="#706F6F"/>
<path d="M138.653 1.62C144.869 1.62 150.301 2.824 154.949 5.232C159.653 7.584 163.265 11 165.785 15.48C168.361 19.904 169.649 25.084 169.649 31.02C169.649 36.956 168.361 42.108 165.785 46.476C163.265 50.844 159.653 54.204 154.949 56.556C150.301 58.852 144.869 60 138.653 60H119.585V1.62H138.653ZM138.653 52.188C145.485 52.188 150.721 50.34 154.361 46.644C158.001 42.948 159.821 37.74 159.821 31.02C159.821 24.244 158.001 18.952 154.361 15.144C150.721 11.336 145.485 9.432 138.653 9.432H129.161V52.188H138.653ZM205.768 60.588C200.336 60.588 195.324 59.328 190.732 56.808C186.196 54.232 182.584 50.676 179.896 46.14C177.264 41.548 175.948 36.396 175.948 30.684C175.948 24.972 177.264 19.848 179.896 15.312C182.584 10.776 186.196 7.248 190.732 4.728C195.324 2.152 200.336 0.863995 205.768 0.863995C211.256 0.863995 216.268 2.152 220.804 4.728C225.396 7.248 229.008 10.776 231.64 15.312C234.272 19.848 235.588 24.972 235.588 30.684C235.588 36.396 234.272 41.548 231.64 46.14C229.008 50.676 225.396 54.232 220.804 56.808C216.268 59.328 211.256 60.588 205.768 60.588ZM205.768 52.272C209.632 52.272 213.076 51.404 216.1 49.668C219.124 47.876 221.476 45.356 223.156 42.108C224.892 38.804 225.76 34.996 225.76 30.684C225.76 26.372 224.892 22.592 223.156 19.344C221.476 16.096 219.124 13.604 216.1 11.868C213.076 10.132 209.632 9.264 205.768 9.264C201.904 9.264 198.46 10.132 195.436 11.868C192.412 13.604 190.032 16.096 188.296 19.344C186.616 22.592 185.776 26.372 185.776 30.684C185.776 34.996 186.616 38.804 188.296 42.108C190.032 45.356 192.412 47.876 195.436 49.668C198.46 51.404 201.904 52.272 205.768 52.272Z" fill="#1976D2"/>
<path d="M196 21H218" stroke="#706F6F" stroke-width="6" stroke-linecap="round"/>
<path d="M196 31H208.5" stroke="#706F6F" stroke-width="6" stroke-linecap="round"/>
<path d="M196 41H214" stroke="#706F6F" stroke-width="6" stroke-linecap="round"/>
</svg>
