<svg width="180" height="41" viewBox="0 0 180 41" fill="none" xmlns="http://www.w3.org/2000/svg">
<path d="M118.962 0.689905V40.9999H112.35V0.689905H118.962ZM153.685 0.689905V6.08391H142.955V40.9999H136.343V6.08391H125.555V0.689905H153.685Z" fill="#706F6F"/>
<path d="M72 15.5999H89" stroke="#706F6F" stroke-width="3" stroke-linecap="round"/>
<path d="M72 20.9999H82" stroke="#1976D2" stroke-width="3" stroke-linecap="round"/>
<path d="M72 26.3999H86" stroke="#706F6F" stroke-width="3" stroke-linecap="round"/>
<rect x="61" y="5.99991" width="39.1667" height="30" rx="13" stroke="#1976D2" stroke-width="10"/>
<path d="M5 5.99991H30C37.1797 5.99991 43 11.8202 43 18.9999V22.9999C43 30.1796 37.1797 35.9999 30 35.9999H5V5.99991Z" stroke="#1976D2" stroke-width="10"/>
<circle cx="156" cy="35.9999" r="5" fill="#1976D2"/>
<path d="M157.069 28.2898L157.069 29L157.189 29.6781L157.5 30L158 30.5L158.336 30.6281L159 31L160 31L161 30.5L162 29.6781L163 28L176.5 6.99998L177.053 5.50001L177.302 4.22123L177.302 2.88999L177.053 2.09325L176.591 1.43377L175.753 0.981532L174.387 0.574858L173.579 0.469675L172.506 0.387274L171.647 0.461315L170.392 0.569528L168.85 1.2268L168.117 1.98926L167.399 2.92524L157.069 28.2898Z" fill="#706F6F"/>
</svg>
