<svg width="235" height="61" viewBox="0 0 235 61" fill="none" xmlns="http://www.w3.org/2000/svg">
<path d="M44.016 1.62V9.432H28.476V60H18.9V9.432H3.276V1.62H44.016ZM80.3421 60.588C74.9101 60.588 69.8981 59.328 65.3061 56.808C60.7701 54.232 57.1581 50.676 54.4701 46.14C51.8381 41.548 50.5221 36.396 50.5221 30.684C50.5221 24.972 51.8381 19.848 54.4701 15.312C57.1581 10.776 60.7701 7.248 65.3061 4.728C69.8981 2.152 74.9101 0.863995 80.3421 0.863995C85.8301 0.863995 90.8421 2.152 95.3781 4.728C99.9701 7.248 103.582 10.776 106.214 15.312C108.846 19.848 110.162 24.972 110.162 30.684C110.162 36.396 108.846 41.548 106.214 46.14C103.582 50.676 99.9701 54.232 95.3781 56.808C90.8421 59.328 85.8301 60.588 80.3421 60.588ZM80.3421 52.272C84.2061 52.272 87.6501 51.404 90.6741 49.668C93.6981 47.876 96.0501 45.356 97.7301 42.108C99.4661 38.804 100.334 34.996 100.334 30.684C100.334 26.372 99.4661 22.592 97.7301 19.344C96.0501 16.096 93.6981 13.604 90.6741 11.868C87.6501 10.132 84.2061 9.264 80.3421 9.264C76.4781 9.264 73.0341 10.132 70.0101 11.868C66.9861 13.604 64.6061 16.096 62.8701 19.344C61.1901 22.592 60.3501 26.372 60.3501 30.684C60.3501 34.996 61.1901 38.804 62.8701 42.108C64.6061 45.356 66.9861 47.876 70.0101 49.668C73.0341 51.404 76.4781 52.272 80.3421 52.272Z" fill="#706F6F"/>
<path d="M138.653 1.62C144.869 1.62 150.301 2.824 154.949 5.232C159.653 7.584 163.265 11 165.785 15.48C168.361 19.904 169.649 25.084 169.649 31.02C169.649 36.956 168.361 42.108 165.785 46.476C163.265 50.844 159.653 54.204 154.949 56.556C150.301 58.852 144.869 60 138.653 60H119.585V1.62H138.653ZM138.653 52.188C145.485 52.188 150.721 50.34 154.361 46.644C158.001 42.948 159.821 37.74 159.821 31.02C159.821 24.244 158.001 18.952 154.361 15.144C150.721 11.336 145.485 9.432 138.653 9.432H129.161V52.188H138.653Z" fill="#1976D2"/>
<path d="M194 22H216" stroke="#706F6F" stroke-width="6" stroke-linecap="round"/>
<path d="M194 32H206.5" stroke="#1976D2" stroke-width="6" stroke-linecap="round"/>
<path d="M194 42H212" stroke="#706F6F" stroke-width="6" stroke-linecap="round"/>
<rect x="180" y="6" width="51" height="51" rx="14" stroke="#1976D2" stroke-width="8"/>
</svg>
