<svg width="235" height="114" viewBox="0 0 235 114" fill="none" xmlns="http://www.w3.org/2000/svg">
<path d="M44.016 21.62V29.432H28.476V80H18.9V29.432H3.276V21.62H44.016ZM80.3421 80.588C74.9101 80.588 69.8981 79.328 65.3061 76.808C60.7701 74.232 57.1581 70.676 54.4701 66.14C51.8381 61.548 50.5221 56.396 50.5221 50.684C50.5221 44.972 51.8381 39.848 54.4701 35.312C57.1581 30.776 60.7701 27.248 65.3061 24.728C69.8981 22.152 74.9101 20.864 80.3421 20.864C85.8301 20.864 90.8421 22.152 95.3781 24.728C99.9701 27.248 103.582 30.776 106.214 35.312C108.846 39.848 110.162 44.972 110.162 50.684C110.162 56.396 108.846 61.548 106.214 66.14C103.582 70.676 99.9701 74.232 95.3781 76.808C90.8421 79.328 85.8301 80.588 80.3421 80.588ZM80.3421 72.272C84.2061 72.272 87.6501 71.404 90.6741 69.668C93.6981 67.876 96.0501 65.356 97.7301 62.108C99.4661 58.804 100.334 54.996 100.334 50.684C100.334 46.372 99.4661 42.592 97.7301 39.344C96.0501 36.096 93.6981 33.604 90.6741 31.868C87.6501 30.132 84.2061 29.264 80.3421 29.264C76.4781 29.264 73.0341 30.132 70.0101 31.868C66.9861 33.604 64.6061 36.096 62.8701 39.344C61.1901 42.592 60.3501 46.372 60.3501 50.684C60.3501 54.996 61.1901 58.804 62.8701 62.108C64.6061 65.356 66.9861 67.876 70.0101 69.668C73.0341 71.404 76.4781 72.272 80.3421 72.272ZM138.653 21.62C144.869 21.62 150.301 22.824 154.949 25.232C159.653 27.584 163.265 31 165.785 35.48C168.361 39.904 169.649 45.084 169.649 51.02C169.649 56.956 168.361 62.108 165.785 66.476C163.265 70.844 159.653 74.204 154.949 76.556C150.301 78.852 144.869 80 138.653 80H119.585V21.62H138.653ZM138.653 72.188C145.485 72.188 150.721 70.34 154.361 66.644C158.001 62.948 159.821 57.74 159.821 51.02C159.821 44.244 158.001 38.952 154.361 35.144C150.721 31.336 145.485 29.432 138.653 29.432H129.161V72.188H138.653Z" fill="#706F6F"/>
<circle cx="205.496" cy="50.5038" r="25.4962" stroke="#706F6F" stroke-width="8"/>
<path d="M194.547 37.8525C194.547 37.8525 194.547 37.8525 198.935 48.3978C203.323 58.9431 203.323 58.9431 203.323 58.9431C206.158 52.3643 213.248 35.5159 233.303 28.9447" stroke="#1BC000" stroke-width="8"/>
</svg>
